<mxfile host="app.diagrams.net" modified="2023-02-23T08:17:06.116Z" agent="5.0 (Windows NT 10.0; Win64; x64) AppleWebKit/537.36 (KHTML, like Gecko) Chrome/110.0.0.0 Safari/537.36" etag="7GXbTz0p3_89_ew0T8JP" version="20.8.22" type="github">
  <diagram name="PÃ¡gina-1" id="XdBwucB2OmCmYfWUsp4b">
    <mxGraphModel dx="2522" dy="2214" grid="1" gridSize="10" guides="1" tooltips="1" connect="1" arrows="1" fold="1" page="1" pageScale="1" pageWidth="827" pageHeight="1169" math="0" shadow="0">
      <root>
        <mxCell id="0" />
        <mxCell id="1" parent="0" />
        <mxCell id="pBVoq0yZQ3j6YAWSU2nO-1" value="trd0025_tb_fac_x_prices" style="shape=table;startSize=30;container=1;collapsible=1;childLayout=tableLayout;fixedRows=1;rowLines=0;fontStyle=1;align=center;resizeLast=1;strokeColor=#000000;rounded=0;" parent="1" vertex="1">
          <mxGeometry x="-201" y="-630" width="250" height="638.0835913312694" as="geometry">
            <mxRectangle x="360" width="100" height="30" as="alternateBounds" />
          </mxGeometry>
        </mxCell>
        <mxCell id="pBVoq0yZQ3j6YAWSU2nO-2" value="" style="shape=partialRectangle;collapsible=0;dropTarget=0;pointerEvents=0;fillColor=none;points=[[0,0.5],[1,0.5]];portConstraint=eastwest;top=0;left=0;right=0;bottom=1;rounded=0;" parent="pBVoq0yZQ3j6YAWSU2nO-1" vertex="1">
          <mxGeometry y="30" width="250" height="30" as="geometry" />
        </mxCell>
        <mxCell id="pBVoq0yZQ3j6YAWSU2nO-3" value="PK" style="shape=partialRectangle;overflow=hidden;connectable=0;fillColor=none;top=0;left=0;bottom=0;right=0;fontStyle=1;rounded=0;" parent="pBVoq0yZQ3j6YAWSU2nO-2" vertex="1">
          <mxGeometry width="30" height="30" as="geometry">
            <mxRectangle width="30" height="30" as="alternateBounds" />
          </mxGeometry>
        </mxCell>
        <mxCell id="pBVoq0yZQ3j6YAWSU2nO-4" value="id_price" style="shape=partialRectangle;overflow=hidden;connectable=0;fillColor=#ffe6cc;top=0;left=0;bottom=0;right=0;align=left;spacingLeft=6;fontStyle=0;strokeColor=#d79b00;rounded=0;" parent="pBVoq0yZQ3j6YAWSU2nO-2" vertex="1">
          <mxGeometry x="30" width="220" height="30" as="geometry">
            <mxRectangle width="220" height="30" as="alternateBounds" />
          </mxGeometry>
        </mxCell>
        <mxCell id="pBVoq0yZQ3j6YAWSU2nO-5" value="" style="shape=partialRectangle;collapsible=0;dropTarget=0;pointerEvents=0;fillColor=none;points=[[0,0.5],[1,0.5]];portConstraint=eastwest;top=0;left=0;right=0;bottom=0;rounded=0;" parent="pBVoq0yZQ3j6YAWSU2nO-1" vertex="1">
          <mxGeometry y="60" width="250" height="30" as="geometry" />
        </mxCell>
        <mxCell id="pBVoq0yZQ3j6YAWSU2nO-6" value="" style="shape=partialRectangle;overflow=hidden;connectable=0;fillColor=none;top=0;left=0;bottom=0;right=0;rounded=0;" parent="pBVoq0yZQ3j6YAWSU2nO-5" vertex="1">
          <mxGeometry width="30" height="30" as="geometry">
            <mxRectangle width="30" height="30" as="alternateBounds" />
          </mxGeometry>
        </mxCell>
        <mxCell id="pBVoq0yZQ3j6YAWSU2nO-7" value="imp_close_value" style="shape=partialRectangle;overflow=hidden;connectable=0;fillColor=#d5e8d4;top=0;left=0;bottom=0;right=0;align=left;spacingLeft=6;strokeColor=#82b366;perimeterSpacing=1;rounded=0;" parent="pBVoq0yZQ3j6YAWSU2nO-5" vertex="1">
          <mxGeometry x="30" width="220" height="30" as="geometry">
            <mxRectangle width="220" height="30" as="alternateBounds" />
          </mxGeometry>
        </mxCell>
        <mxCell id="pBVoq0yZQ3j6YAWSU2nO-8" value="" style="shape=partialRectangle;collapsible=0;dropTarget=0;pointerEvents=0;fillColor=none;points=[[0,0.5],[1,0.5]];portConstraint=eastwest;top=0;left=0;right=0;bottom=0;rounded=0;" parent="pBVoq0yZQ3j6YAWSU2nO-1" vertex="1">
          <mxGeometry y="90" width="250" height="30" as="geometry" />
        </mxCell>
        <mxCell id="pBVoq0yZQ3j6YAWSU2nO-9" value="" style="shape=partialRectangle;overflow=hidden;connectable=0;fillColor=none;top=0;left=0;bottom=0;right=0;rounded=0;" parent="pBVoq0yZQ3j6YAWSU2nO-8" vertex="1">
          <mxGeometry width="30" height="30" as="geometry">
            <mxRectangle width="30" height="30" as="alternateBounds" />
          </mxGeometry>
        </mxCell>
        <mxCell id="pBVoq0yZQ3j6YAWSU2nO-10" value="imp_open_value" style="shape=partialRectangle;overflow=hidden;connectable=0;fillColor=#d5e8d4;top=0;left=0;bottom=0;right=0;align=left;spacingLeft=6;strokeColor=#82b366;perimeterSpacing=1;rounded=0;" parent="pBVoq0yZQ3j6YAWSU2nO-8" vertex="1">
          <mxGeometry x="30" width="220" height="30" as="geometry">
            <mxRectangle width="220" height="30" as="alternateBounds" />
          </mxGeometry>
        </mxCell>
        <mxCell id="pBVoq0yZQ3j6YAWSU2nO-11" value="" style="shape=partialRectangle;collapsible=0;dropTarget=0;pointerEvents=0;fillColor=none;points=[[0,0.5],[1,0.5]];portConstraint=eastwest;top=0;left=0;right=0;bottom=0;rounded=0;" parent="pBVoq0yZQ3j6YAWSU2nO-1" vertex="1">
          <mxGeometry y="120" width="250" height="30" as="geometry" />
        </mxCell>
        <mxCell id="pBVoq0yZQ3j6YAWSU2nO-12" value="" style="shape=partialRectangle;overflow=hidden;connectable=0;fillColor=none;top=0;left=0;bottom=0;right=0;rounded=0;" parent="pBVoq0yZQ3j6YAWSU2nO-11" vertex="1">
          <mxGeometry width="30" height="30" as="geometry">
            <mxRectangle width="30" height="30" as="alternateBounds" />
          </mxGeometry>
        </mxCell>
        <mxCell id="pBVoq0yZQ3j6YAWSU2nO-13" value="imp_high_value" style="shape=partialRectangle;overflow=hidden;connectable=0;fillColor=#d5e8d4;top=0;left=0;bottom=0;right=0;align=left;spacingLeft=6;strokeColor=#82b366;perimeterSpacing=1;rounded=0;" parent="pBVoq0yZQ3j6YAWSU2nO-11" vertex="1">
          <mxGeometry x="30" width="220" height="30" as="geometry">
            <mxRectangle width="220" height="30" as="alternateBounds" />
          </mxGeometry>
        </mxCell>
        <mxCell id="pBVoq0yZQ3j6YAWSU2nO-14" value="" style="shape=partialRectangle;collapsible=0;dropTarget=0;pointerEvents=0;fillColor=none;points=[[0,0.5],[1,0.5]];portConstraint=eastwest;top=0;left=0;right=0;bottom=0;rounded=0;" parent="pBVoq0yZQ3j6YAWSU2nO-1" vertex="1">
          <mxGeometry y="150" width="250" height="30" as="geometry" />
        </mxCell>
        <mxCell id="pBVoq0yZQ3j6YAWSU2nO-15" value="" style="shape=partialRectangle;overflow=hidden;connectable=0;fillColor=none;top=0;left=0;bottom=0;right=0;rounded=0;" parent="pBVoq0yZQ3j6YAWSU2nO-14" vertex="1">
          <mxGeometry width="30" height="30" as="geometry">
            <mxRectangle width="30" height="30" as="alternateBounds" />
          </mxGeometry>
        </mxCell>
        <mxCell id="pBVoq0yZQ3j6YAWSU2nO-16" value="imp_low_value" style="shape=partialRectangle;overflow=hidden;connectable=0;fillColor=#d5e8d4;top=0;left=0;bottom=0;right=0;align=left;spacingLeft=6;strokeColor=#82b366;perimeterSpacing=1;rounded=0;" parent="pBVoq0yZQ3j6YAWSU2nO-14" vertex="1">
          <mxGeometry x="30" width="220" height="30" as="geometry">
            <mxRectangle width="220" height="30" as="alternateBounds" />
          </mxGeometry>
        </mxCell>
        <mxCell id="pBVoq0yZQ3j6YAWSU2nO-17" value="" style="shape=partialRectangle;collapsible=0;dropTarget=0;pointerEvents=0;fillColor=none;points=[[0,0.5],[1,0.5]];portConstraint=eastwest;top=0;left=0;right=0;bottom=0;rounded=0;" parent="pBVoq0yZQ3j6YAWSU2nO-1" vertex="1">
          <mxGeometry y="180" width="250" height="30" as="geometry" />
        </mxCell>
        <mxCell id="pBVoq0yZQ3j6YAWSU2nO-18" value="" style="shape=partialRectangle;overflow=hidden;connectable=0;fillColor=none;top=0;left=0;bottom=0;right=0;rounded=0;" parent="pBVoq0yZQ3j6YAWSU2nO-17" vertex="1">
          <mxGeometry width="30" height="30" as="geometry">
            <mxRectangle width="30" height="30" as="alternateBounds" />
          </mxGeometry>
        </mxCell>
        <mxCell id="pBVoq0yZQ3j6YAWSU2nO-19" value="imp_mid_point" style="shape=partialRectangle;overflow=hidden;connectable=0;fillColor=#D5E8D4;top=0;left=0;bottom=0;right=0;align=left;spacingLeft=6;strokeColor=#10739e;perimeterSpacing=1;rounded=0;" parent="pBVoq0yZQ3j6YAWSU2nO-17" vertex="1">
          <mxGeometry x="30" width="220" height="30" as="geometry">
            <mxRectangle width="220" height="30" as="alternateBounds" />
          </mxGeometry>
        </mxCell>
        <mxCell id="pBVoq0yZQ3j6YAWSU2nO-20" value="" style="shape=partialRectangle;collapsible=0;dropTarget=0;pointerEvents=0;fillColor=none;points=[[0,0.5],[1,0.5]];portConstraint=eastwest;top=0;left=0;right=0;bottom=0;rounded=0;" parent="pBVoq0yZQ3j6YAWSU2nO-1" vertex="1">
          <mxGeometry y="210" width="250" height="30" as="geometry" />
        </mxCell>
        <mxCell id="pBVoq0yZQ3j6YAWSU2nO-21" value="" style="shape=partialRectangle;overflow=hidden;connectable=0;fillColor=none;top=0;left=0;bottom=0;right=0;rounded=0;" parent="pBVoq0yZQ3j6YAWSU2nO-20" vertex="1">
          <mxGeometry width="30" height="30" as="geometry">
            <mxRectangle width="30" height="30" as="alternateBounds" />
          </mxGeometry>
        </mxCell>
        <mxCell id="pBVoq0yZQ3j6YAWSU2nO-22" value="num_volume" style="shape=partialRectangle;overflow=hidden;connectable=0;fillColor=#D5E8D4;top=0;left=0;bottom=0;right=0;align=left;spacingLeft=6;strokeColor=#10739e;perimeterSpacing=1;rounded=0;" parent="pBVoq0yZQ3j6YAWSU2nO-20" vertex="1">
          <mxGeometry x="30" width="220" height="30" as="geometry">
            <mxRectangle width="220" height="30" as="alternateBounds" />
          </mxGeometry>
        </mxCell>
        <mxCell id="pBVoq0yZQ3j6YAWSU2nO-23" value="" style="shape=partialRectangle;collapsible=0;dropTarget=0;pointerEvents=0;fillColor=none;points=[[0,0.5],[1,0.5]];portConstraint=eastwest;top=0;left=0;right=0;bottom=0;rounded=0;" parent="pBVoq0yZQ3j6YAWSU2nO-1" vertex="1">
          <mxGeometry y="240" width="250" height="34" as="geometry" />
        </mxCell>
        <mxCell id="pBVoq0yZQ3j6YAWSU2nO-24" value="" style="shape=partialRectangle;overflow=hidden;connectable=0;fillColor=none;top=0;left=0;bottom=0;right=0;rounded=0;" parent="pBVoq0yZQ3j6YAWSU2nO-23" vertex="1">
          <mxGeometry width="30" height="34" as="geometry">
            <mxRectangle width="30" height="34" as="alternateBounds" />
          </mxGeometry>
        </mxCell>
        <mxCell id="pBVoq0yZQ3j6YAWSU2nO-25" value="num_open_interest" style="shape=partialRectangle;overflow=hidden;connectable=0;fillColor=#D5E8D4;top=0;left=0;bottom=0;right=0;align=left;spacingLeft=6;strokeColor=#10739e;perimeterSpacing=1;rounded=0;" parent="pBVoq0yZQ3j6YAWSU2nO-23" vertex="1">
          <mxGeometry x="30" width="220" height="34" as="geometry">
            <mxRectangle width="220" height="34" as="alternateBounds" />
          </mxGeometry>
        </mxCell>
        <mxCell id="io9W9nESMk3oc6VNc0aU-1" value="" style="shape=partialRectangle;collapsible=0;dropTarget=0;pointerEvents=0;fillColor=none;points=[[0,0.5],[1,0.5]];portConstraint=eastwest;top=0;left=0;right=0;bottom=0;rounded=0;" vertex="1" parent="pBVoq0yZQ3j6YAWSU2nO-1">
          <mxGeometry y="274" width="250" height="34" as="geometry" />
        </mxCell>
        <mxCell id="io9W9nESMk3oc6VNc0aU-2" value="" style="shape=partialRectangle;overflow=hidden;connectable=0;fillColor=none;top=0;left=0;bottom=0;right=0;rounded=0;" vertex="1" parent="io9W9nESMk3oc6VNc0aU-1">
          <mxGeometry width="30" height="34" as="geometry">
            <mxRectangle width="30" height="34" as="alternateBounds" />
          </mxGeometry>
        </mxCell>
        <mxCell id="io9W9nESMk3oc6VNc0aU-3" value="val_exchange_code" style="shape=partialRectangle;overflow=hidden;connectable=0;fillColor=#D5E8D4;top=0;left=0;bottom=0;right=0;align=left;spacingLeft=6;strokeColor=#10739e;perimeterSpacing=1;rounded=0;" vertex="1" parent="io9W9nESMk3oc6VNc0aU-1">
          <mxGeometry x="30" width="220" height="34" as="geometry">
            <mxRectangle width="220" height="34" as="alternateBounds" />
          </mxGeometry>
        </mxCell>
        <mxCell id="pBVoq0yZQ3j6YAWSU2nO-26" value="" style="shape=partialRectangle;collapsible=0;dropTarget=0;pointerEvents=0;fillColor=none;points=[[0,0.5],[1,0.5]];portConstraint=eastwest;top=0;left=0;right=0;bottom=0;rounded=0;" parent="pBVoq0yZQ3j6YAWSU2nO-1" vertex="1">
          <mxGeometry y="308" width="250" height="30" as="geometry" />
        </mxCell>
        <mxCell id="pBVoq0yZQ3j6YAWSU2nO-27" value="" style="shape=partialRectangle;overflow=hidden;connectable=0;fillColor=none;top=0;left=0;bottom=0;right=0;rounded=0;" parent="pBVoq0yZQ3j6YAWSU2nO-26" vertex="1">
          <mxGeometry width="30" height="30" as="geometry">
            <mxRectangle width="30" height="30" as="alternateBounds" />
          </mxGeometry>
        </mxCell>
        <UserObject label="val_UoM" id="pBVoq0yZQ3j6YAWSU2nO-28">
          <mxCell style="shape=partialRectangle;overflow=hidden;connectable=0;fillColor=#cce5ff;top=0;left=0;bottom=0;right=0;align=left;spacingLeft=6;strokeColor=#36393d;perimeterSpacing=8;strokeWidth=10;rounded=0;" parent="pBVoq0yZQ3j6YAWSU2nO-26" vertex="1">
            <mxGeometry x="30" width="220" height="30" as="geometry">
              <mxRectangle width="220" height="30" as="alternateBounds" />
            </mxGeometry>
          </mxCell>
        </UserObject>
        <mxCell id="pBVoq0yZQ3j6YAWSU2nO-29" value="" style="shape=partialRectangle;collapsible=0;dropTarget=0;pointerEvents=0;fillColor=none;points=[[0,0.5],[1,0.5]];portConstraint=eastwest;top=0;left=0;right=0;bottom=0;rounded=0;" parent="pBVoq0yZQ3j6YAWSU2nO-1" vertex="1">
          <mxGeometry y="338" width="250" height="30" as="geometry" />
        </mxCell>
        <mxCell id="pBVoq0yZQ3j6YAWSU2nO-30" value="" style="shape=partialRectangle;overflow=hidden;connectable=0;fillColor=none;top=0;left=0;bottom=0;right=0;rounded=0;" parent="pBVoq0yZQ3j6YAWSU2nO-29" vertex="1">
          <mxGeometry width="30" height="30" as="geometry">
            <mxRectangle width="30" height="30" as="alternateBounds" />
          </mxGeometry>
        </mxCell>
        <mxCell id="pBVoq0yZQ3j6YAWSU2nO-31" value="val_currency" style="shape=partialRectangle;overflow=hidden;connectable=0;fillColor=#b1ddf0;top=0;left=0;bottom=0;right=0;align=left;spacingLeft=6;strokeColor=#10739e;perimeterSpacing=1;rounded=0;" parent="pBVoq0yZQ3j6YAWSU2nO-29" vertex="1">
          <mxGeometry x="30" width="220" height="30" as="geometry">
            <mxRectangle width="220" height="30" as="alternateBounds" />
          </mxGeometry>
        </mxCell>
        <mxCell id="pBVoq0yZQ3j6YAWSU2nO-32" value="" style="shape=partialRectangle;collapsible=0;dropTarget=0;pointerEvents=0;fillColor=none;points=[[0,0.5],[1,0.5]];portConstraint=eastwest;top=0;left=0;right=0;bottom=0;rounded=0;" parent="pBVoq0yZQ3j6YAWSU2nO-1" vertex="1">
          <mxGeometry y="368" width="250" height="30" as="geometry" />
        </mxCell>
        <mxCell id="pBVoq0yZQ3j6YAWSU2nO-33" value="" style="shape=partialRectangle;overflow=hidden;connectable=0;fillColor=none;top=0;left=0;bottom=0;right=0;rounded=0;" parent="pBVoq0yZQ3j6YAWSU2nO-32" vertex="1">
          <mxGeometry width="30" height="30" as="geometry">
            <mxRectangle width="30" height="30" as="alternateBounds" />
          </mxGeometry>
        </mxCell>
        <mxCell id="pBVoq0yZQ3j6YAWSU2nO-34" value="val_description" style="shape=partialRectangle;overflow=hidden;connectable=0;fillColor=#CCE5FF;top=0;left=0;bottom=0;right=0;align=left;spacingLeft=6;strokeColor=#36393d;perimeterSpacing=1;rounded=0;" parent="pBVoq0yZQ3j6YAWSU2nO-32" vertex="1">
          <mxGeometry x="30" width="220" height="30" as="geometry">
            <mxRectangle width="220" height="30" as="alternateBounds" />
          </mxGeometry>
        </mxCell>
        <mxCell id="pBVoq0yZQ3j6YAWSU2nO-35" value="" style="shape=partialRectangle;collapsible=0;dropTarget=0;pointerEvents=0;fillColor=none;points=[[0,0.5],[1,0.5]];portConstraint=eastwest;top=0;left=0;right=0;bottom=0;rounded=0;" parent="pBVoq0yZQ3j6YAWSU2nO-1" vertex="1">
          <mxGeometry y="398" width="250" height="30" as="geometry" />
        </mxCell>
        <mxCell id="pBVoq0yZQ3j6YAWSU2nO-36" value="" style="shape=partialRectangle;overflow=hidden;connectable=0;fillColor=none;top=0;left=0;bottom=0;right=0;rounded=0;" parent="pBVoq0yZQ3j6YAWSU2nO-35" vertex="1">
          <mxGeometry width="30" height="30" as="geometry">
            <mxRectangle width="30" height="30" as="alternateBounds" />
          </mxGeometry>
        </mxCell>
        <mxCell id="pBVoq0yZQ3j6YAWSU2nO-37" value="val_symbol" style="shape=partialRectangle;overflow=hidden;connectable=0;fillColor=#b1ddf0;top=0;left=0;bottom=0;right=0;align=left;spacingLeft=6;strokeColor=#10739e;perimeterSpacing=1;rounded=0;" parent="pBVoq0yZQ3j6YAWSU2nO-35" vertex="1">
          <mxGeometry x="30" width="220" height="30" as="geometry">
            <mxRectangle width="220" height="30" as="alternateBounds" />
          </mxGeometry>
        </mxCell>
        <mxCell id="eUXpXqpGrS1Ki1ExuDuf-1" value="" style="shape=partialRectangle;collapsible=0;dropTarget=0;pointerEvents=0;fillColor=none;points=[[0,0.5],[1,0.5]];portConstraint=eastwest;top=0;left=0;right=0;bottom=0;rounded=0;" parent="pBVoq0yZQ3j6YAWSU2nO-1" vertex="1">
          <mxGeometry y="428" width="250" height="30" as="geometry" />
        </mxCell>
        <mxCell id="eUXpXqpGrS1Ki1ExuDuf-2" value="" style="shape=partialRectangle;overflow=hidden;connectable=0;fillColor=none;top=0;left=0;bottom=0;right=0;rounded=0;" parent="eUXpXqpGrS1Ki1ExuDuf-1" vertex="1">
          <mxGeometry width="30" height="30" as="geometry">
            <mxRectangle width="30" height="30" as="alternateBounds" />
          </mxGeometry>
        </mxCell>
        <mxCell id="eUXpXqpGrS1Ki1ExuDuf-3" value="val_contract_type" style="shape=partialRectangle;overflow=hidden;connectable=0;fillColor=#CCE5FF;top=0;left=0;bottom=0;right=0;align=left;spacingLeft=6;strokeColor=#000000;perimeterSpacing=1;rounded=0;strokeWidth=1;gradientColor=none;" parent="eUXpXqpGrS1Ki1ExuDuf-1" vertex="1">
          <mxGeometry x="30" width="220" height="30" as="geometry">
            <mxRectangle width="220" height="30" as="alternateBounds" />
          </mxGeometry>
        </mxCell>
        <mxCell id="pBVoq0yZQ3j6YAWSU2nO-41" value="" style="shape=partialRectangle;collapsible=0;dropTarget=0;pointerEvents=0;fillColor=none;points=[[0,0.5],[1,0.5]];portConstraint=eastwest;top=0;left=0;right=0;bottom=0;rounded=0;" parent="pBVoq0yZQ3j6YAWSU2nO-1" vertex="1">
          <mxGeometry y="458" width="250" height="30" as="geometry" />
        </mxCell>
        <mxCell id="pBVoq0yZQ3j6YAWSU2nO-42" value="" style="shape=partialRectangle;overflow=hidden;connectable=0;fillColor=none;top=0;left=0;bottom=0;right=0;rounded=0;" parent="pBVoq0yZQ3j6YAWSU2nO-41" vertex="1">
          <mxGeometry width="30" height="30" as="geometry">
            <mxRectangle width="30" height="30" as="alternateBounds" />
          </mxGeometry>
        </mxCell>
        <mxCell id="pBVoq0yZQ3j6YAWSU2nO-43" value="num_etl_load_id" style="shape=partialRectangle;overflow=hidden;connectable=0;fillColor=#B1DDF0;top=0;left=0;bottom=0;right=0;align=left;spacingLeft=6;strokeColor=#36393d;perimeterSpacing=1;rounded=0;" parent="pBVoq0yZQ3j6YAWSU2nO-41" vertex="1">
          <mxGeometry x="30" width="220" height="30" as="geometry">
            <mxRectangle width="220" height="30" as="alternateBounds" />
          </mxGeometry>
        </mxCell>
        <mxCell id="pBVoq0yZQ3j6YAWSU2nO-44" value="" style="shape=partialRectangle;collapsible=0;dropTarget=0;pointerEvents=0;fillColor=none;points=[[0,0.5],[1,0.5]];portConstraint=eastwest;top=0;left=0;right=0;bottom=0;rounded=0;" parent="pBVoq0yZQ3j6YAWSU2nO-1" vertex="1">
          <mxGeometry y="488" width="250" height="30" as="geometry" />
        </mxCell>
        <mxCell id="pBVoq0yZQ3j6YAWSU2nO-45" value="" style="shape=partialRectangle;overflow=hidden;connectable=0;fillColor=none;top=0;left=0;bottom=0;right=0;rounded=0;" parent="pBVoq0yZQ3j6YAWSU2nO-44" vertex="1">
          <mxGeometry width="30" height="30" as="geometry">
            <mxRectangle width="30" height="30" as="alternateBounds" />
          </mxGeometry>
        </mxCell>
        <mxCell id="pBVoq0yZQ3j6YAWSU2nO-46" value="tst_load_date" style="shape=partialRectangle;overflow=hidden;connectable=0;fillColor=#CCE5FF;top=0;left=0;bottom=0;right=0;align=left;spacingLeft=6;strokeColor=#10739e;perimeterSpacing=1;rounded=0;" parent="pBVoq0yZQ3j6YAWSU2nO-44" vertex="1">
          <mxGeometry x="30" width="220" height="30" as="geometry">
            <mxRectangle width="220" height="30" as="alternateBounds" />
          </mxGeometry>
        </mxCell>
        <mxCell id="pBVoq0yZQ3j6YAWSU2nO-47" value="" style="shape=partialRectangle;collapsible=0;dropTarget=0;pointerEvents=0;fillColor=none;points=[[0,0.5],[1,0.5]];portConstraint=eastwest;top=0;left=0;right=0;bottom=0;rounded=0;" parent="pBVoq0yZQ3j6YAWSU2nO-1" vertex="1">
          <mxGeometry y="518" width="250" height="30" as="geometry" />
        </mxCell>
        <mxCell id="pBVoq0yZQ3j6YAWSU2nO-48" value="" style="shape=partialRectangle;overflow=hidden;connectable=0;fillColor=none;top=0;left=0;bottom=0;right=0;rounded=0;" parent="pBVoq0yZQ3j6YAWSU2nO-47" vertex="1">
          <mxGeometry width="30" height="30" as="geometry">
            <mxRectangle width="30" height="30" as="alternateBounds" />
          </mxGeometry>
        </mxCell>
        <mxCell id="pBVoq0yZQ3j6YAWSU2nO-49" value="tst_update_load" style="shape=partialRectangle;overflow=hidden;connectable=0;fillColor=#B1DDF0;top=0;left=0;bottom=0;right=0;align=left;spacingLeft=6;strokeColor=#36393d;perimeterSpacing=1;rounded=0;" parent="pBVoq0yZQ3j6YAWSU2nO-47" vertex="1">
          <mxGeometry x="30" width="220" height="30" as="geometry">
            <mxRectangle width="220" height="30" as="alternateBounds" />
          </mxGeometry>
        </mxCell>
        <mxCell id="pBVoq0yZQ3j6YAWSU2nO-50" value="" style="shape=partialRectangle;collapsible=0;dropTarget=0;pointerEvents=0;fillColor=none;points=[[0,0.5],[1,0.5]];portConstraint=eastwest;top=0;left=0;right=0;bottom=0;rounded=0;" parent="pBVoq0yZQ3j6YAWSU2nO-1" vertex="1">
          <mxGeometry y="548" width="250" height="30" as="geometry" />
        </mxCell>
        <mxCell id="pBVoq0yZQ3j6YAWSU2nO-51" value="" style="shape=partialRectangle;overflow=hidden;connectable=0;fillColor=none;top=0;left=0;bottom=0;right=0;rounded=0;" parent="pBVoq0yZQ3j6YAWSU2nO-50" vertex="1">
          <mxGeometry width="30" height="30" as="geometry">
            <mxRectangle width="30" height="30" as="alternateBounds" />
          </mxGeometry>
        </mxCell>
        <mxCell id="pBVoq0yZQ3j6YAWSU2nO-52" value="tst_fac_date" style="shape=partialRectangle;overflow=hidden;connectable=0;fillColor=#CCE5FF;top=0;left=0;bottom=0;right=0;align=left;spacingLeft=6;strokeColor=#10739e;perimeterSpacing=1;rounded=0;" parent="pBVoq0yZQ3j6YAWSU2nO-50" vertex="1">
          <mxGeometry x="30" width="220" height="30" as="geometry">
            <mxRectangle width="220" height="30" as="alternateBounds" />
          </mxGeometry>
        </mxCell>
        <mxCell id="pBVoq0yZQ3j6YAWSU2nO-53" value="" style="shape=partialRectangle;collapsible=0;dropTarget=0;pointerEvents=0;fillColor=none;points=[[0,0.5],[1,0.5]];portConstraint=eastwest;top=0;left=0;right=0;bottom=0;rounded=0;" parent="pBVoq0yZQ3j6YAWSU2nO-1" vertex="1">
          <mxGeometry y="578" width="250" height="30" as="geometry" />
        </mxCell>
        <mxCell id="pBVoq0yZQ3j6YAWSU2nO-54" value="" style="shape=partialRectangle;overflow=hidden;connectable=0;fillColor=none;top=0;left=0;bottom=0;right=0;rounded=0;" parent="pBVoq0yZQ3j6YAWSU2nO-53" vertex="1">
          <mxGeometry width="30" height="30" as="geometry">
            <mxRectangle width="30" height="30" as="alternateBounds" />
          </mxGeometry>
        </mxCell>
        <mxCell id="pBVoq0yZQ3j6YAWSU2nO-55" value="fec_fac_date" style="shape=partialRectangle;overflow=hidden;connectable=0;fillColor=#B1DDF0;top=0;left=0;bottom=0;right=0;align=left;spacingLeft=6;strokeColor=#36393d;perimeterSpacing=1;rounded=0;" parent="pBVoq0yZQ3j6YAWSU2nO-53" vertex="1">
          <mxGeometry x="30" width="220" height="30" as="geometry">
            <mxRectangle width="220" height="30" as="alternateBounds" />
          </mxGeometry>
        </mxCell>
        <mxCell id="pBVoq0yZQ3j6YAWSU2nO-56" value="" style="shape=partialRectangle;collapsible=0;dropTarget=0;pointerEvents=0;fillColor=none;points=[[0,0.5],[1,0.5]];portConstraint=eastwest;top=0;left=0;right=0;bottom=0;rounded=0;" parent="pBVoq0yZQ3j6YAWSU2nO-1" vertex="1">
          <mxGeometry y="608" width="250" height="30" as="geometry" />
        </mxCell>
        <mxCell id="pBVoq0yZQ3j6YAWSU2nO-57" value="" style="shape=partialRectangle;overflow=hidden;connectable=0;fillColor=none;top=0;left=0;bottom=0;right=0;rounded=0;" parent="pBVoq0yZQ3j6YAWSU2nO-56" vertex="1">
          <mxGeometry width="30" height="30" as="geometry">
            <mxRectangle width="30" height="30" as="alternateBounds" />
          </mxGeometry>
        </mxCell>
        <mxCell id="pBVoq0yZQ3j6YAWSU2nO-58" value="tst_aria_load" style="shape=partialRectangle;overflow=hidden;connectable=0;fillColor=#CCE5FF;top=0;left=0;bottom=0;right=0;align=left;spacingLeft=6;strokeColor=#000000;perimeterSpacing=1;rounded=0;strokeWidth=1;gradientColor=none;" parent="pBVoq0yZQ3j6YAWSU2nO-56" vertex="1">
          <mxGeometry x="30" width="220" height="30" as="geometry">
            <mxRectangle width="220" height="30" as="alternateBounds" />
          </mxGeometry>
        </mxCell>
        <mxCell id="pBVoq0yZQ3j6YAWSU2nO-59" value="trd0025_tb_dim_x_currency" style="shape=table;startSize=30;container=1;collapsible=1;childLayout=tableLayout;fixedRows=1;rowLines=0;fontStyle=1;align=center;resizeLast=1;strokeColor=#000000;rounded=0;" parent="1" vertex="1">
          <mxGeometry x="280" y="-510" width="250" height="270.2941176470588" as="geometry">
            <mxRectangle x="360" width="100" height="30" as="alternateBounds" />
          </mxGeometry>
        </mxCell>
        <mxCell id="pBVoq0yZQ3j6YAWSU2nO-60" value="" style="shape=partialRectangle;collapsible=0;dropTarget=0;pointerEvents=0;fillColor=none;points=[[0,0.5],[1,0.5]];portConstraint=eastwest;top=0;left=0;right=0;bottom=1;rounded=0;" parent="pBVoq0yZQ3j6YAWSU2nO-59" vertex="1">
          <mxGeometry y="30" width="250" height="30" as="geometry" />
        </mxCell>
        <mxCell id="pBVoq0yZQ3j6YAWSU2nO-61" value="PK" style="shape=partialRectangle;overflow=hidden;connectable=0;fillColor=none;top=0;left=0;bottom=0;right=0;fontStyle=1;rounded=0;" parent="pBVoq0yZQ3j6YAWSU2nO-60" vertex="1">
          <mxGeometry width="30" height="30" as="geometry">
            <mxRectangle width="30" height="30" as="alternateBounds" />
          </mxGeometry>
        </mxCell>
        <mxCell id="pBVoq0yZQ3j6YAWSU2nO-62" value="id_currency" style="shape=partialRectangle;overflow=hidden;connectable=0;fillColor=#ffe6cc;top=0;left=0;bottom=0;right=0;align=left;spacingLeft=6;fontStyle=0;strokeColor=#d79b00;rounded=0;" parent="pBVoq0yZQ3j6YAWSU2nO-60" vertex="1">
          <mxGeometry x="30" width="220" height="30" as="geometry">
            <mxRectangle width="220" height="30" as="alternateBounds" />
          </mxGeometry>
        </mxCell>
        <mxCell id="pBVoq0yZQ3j6YAWSU2nO-63" value="" style="shape=partialRectangle;collapsible=0;dropTarget=0;pointerEvents=0;fillColor=none;points=[[0,0.5],[1,0.5]];portConstraint=eastwest;top=0;left=0;right=0;bottom=0;rounded=0;" parent="pBVoq0yZQ3j6YAWSU2nO-59" vertex="1">
          <mxGeometry y="60" width="250" height="30" as="geometry" />
        </mxCell>
        <mxCell id="pBVoq0yZQ3j6YAWSU2nO-64" value="" style="shape=partialRectangle;overflow=hidden;connectable=0;fillColor=none;top=0;left=0;bottom=0;right=0;rounded=0;" parent="pBVoq0yZQ3j6YAWSU2nO-63" vertex="1">
          <mxGeometry width="30" height="30" as="geometry">
            <mxRectangle width="30" height="30" as="alternateBounds" />
          </mxGeometry>
        </mxCell>
        <mxCell id="pBVoq0yZQ3j6YAWSU2nO-65" value="val_currency_name" style="shape=partialRectangle;overflow=hidden;connectable=0;fillColor=#d5e8d4;top=0;left=0;bottom=0;right=0;align=left;spacingLeft=6;strokeColor=#82b366;perimeterSpacing=1;rounded=0;" parent="pBVoq0yZQ3j6YAWSU2nO-63" vertex="1">
          <mxGeometry x="30" width="220" height="30" as="geometry">
            <mxRectangle width="220" height="30" as="alternateBounds" />
          </mxGeometry>
        </mxCell>
        <mxCell id="pBVoq0yZQ3j6YAWSU2nO-66" value="" style="shape=partialRectangle;collapsible=0;dropTarget=0;pointerEvents=0;fillColor=none;points=[[0,0.5],[1,0.5]];portConstraint=eastwest;top=0;left=0;right=0;bottom=0;rounded=0;" parent="pBVoq0yZQ3j6YAWSU2nO-59" vertex="1">
          <mxGeometry y="90" width="250" height="30" as="geometry" />
        </mxCell>
        <mxCell id="pBVoq0yZQ3j6YAWSU2nO-67" value="" style="shape=partialRectangle;overflow=hidden;connectable=0;fillColor=none;top=0;left=0;bottom=0;right=0;rounded=0;" parent="pBVoq0yZQ3j6YAWSU2nO-66" vertex="1">
          <mxGeometry width="30" height="30" as="geometry">
            <mxRectangle width="30" height="30" as="alternateBounds" />
          </mxGeometry>
        </mxCell>
        <mxCell id="pBVoq0yZQ3j6YAWSU2nO-68" value="val_iso_currency_code" style="shape=partialRectangle;overflow=hidden;connectable=0;fillColor=#d5e8d4;top=0;left=0;bottom=0;right=0;align=left;spacingLeft=6;strokeColor=#82b366;perimeterSpacing=1;rounded=0;" parent="pBVoq0yZQ3j6YAWSU2nO-66" vertex="1">
          <mxGeometry x="30" width="220" height="30" as="geometry">
            <mxRectangle width="220" height="30" as="alternateBounds" />
          </mxGeometry>
        </mxCell>
        <mxCell id="pBVoq0yZQ3j6YAWSU2nO-69" value="" style="shape=partialRectangle;collapsible=0;dropTarget=0;pointerEvents=0;fillColor=none;points=[[0,0.5],[1,0.5]];portConstraint=eastwest;top=0;left=0;right=0;bottom=0;rounded=0;" parent="pBVoq0yZQ3j6YAWSU2nO-59" vertex="1">
          <mxGeometry y="120" width="250" height="30" as="geometry" />
        </mxCell>
        <mxCell id="pBVoq0yZQ3j6YAWSU2nO-70" value="" style="shape=partialRectangle;overflow=hidden;connectable=0;fillColor=none;top=0;left=0;bottom=0;right=0;rounded=0;" parent="pBVoq0yZQ3j6YAWSU2nO-69" vertex="1">
          <mxGeometry width="30" height="30" as="geometry">
            <mxRectangle width="30" height="30" as="alternateBounds" />
          </mxGeometry>
        </mxCell>
        <mxCell id="pBVoq0yZQ3j6YAWSU2nO-71" value="val_country" style="shape=partialRectangle;overflow=hidden;connectable=0;fillColor=#d5e8d4;top=0;left=0;bottom=0;right=0;align=left;spacingLeft=6;strokeColor=#82b366;perimeterSpacing=1;rounded=0;" parent="pBVoq0yZQ3j6YAWSU2nO-69" vertex="1">
          <mxGeometry x="30" width="220" height="30" as="geometry">
            <mxRectangle width="220" height="30" as="alternateBounds" />
          </mxGeometry>
        </mxCell>
        <mxCell id="pBVoq0yZQ3j6YAWSU2nO-72" value="" style="shape=partialRectangle;collapsible=0;dropTarget=0;pointerEvents=0;fillColor=none;points=[[0,0.5],[1,0.5]];portConstraint=eastwest;top=0;left=0;right=0;bottom=0;rounded=0;" parent="pBVoq0yZQ3j6YAWSU2nO-59" vertex="1">
          <mxGeometry y="150" width="250" height="30" as="geometry" />
        </mxCell>
        <mxCell id="pBVoq0yZQ3j6YAWSU2nO-73" value="" style="shape=partialRectangle;overflow=hidden;connectable=0;fillColor=none;top=0;left=0;bottom=0;right=0;rounded=0;" parent="pBVoq0yZQ3j6YAWSU2nO-72" vertex="1">
          <mxGeometry width="30" height="30" as="geometry">
            <mxRectangle width="30" height="30" as="alternateBounds" />
          </mxGeometry>
        </mxCell>
        <mxCell id="pBVoq0yZQ3j6YAWSU2nO-74" value="val_iso_currency_number" style="shape=partialRectangle;overflow=hidden;connectable=0;fillColor=#d5e8d4;top=0;left=0;bottom=0;right=0;align=left;spacingLeft=6;strokeColor=#82b366;perimeterSpacing=1;rounded=0;" parent="pBVoq0yZQ3j6YAWSU2nO-72" vertex="1">
          <mxGeometry x="30" width="220" height="30" as="geometry">
            <mxRectangle width="220" height="30" as="alternateBounds" />
          </mxGeometry>
        </mxCell>
        <mxCell id="pBVoq0yZQ3j6YAWSU2nO-75" value="" style="shape=partialRectangle;collapsible=0;dropTarget=0;pointerEvents=0;fillColor=none;points=[[0,0.5],[1,0.5]];portConstraint=eastwest;top=0;left=0;right=0;bottom=0;rounded=0;" parent="pBVoq0yZQ3j6YAWSU2nO-59" vertex="1">
          <mxGeometry y="180" width="250" height="30" as="geometry" />
        </mxCell>
        <mxCell id="pBVoq0yZQ3j6YAWSU2nO-76" value="" style="shape=partialRectangle;overflow=hidden;connectable=0;fillColor=none;top=0;left=0;bottom=0;right=0;rounded=0;" parent="pBVoq0yZQ3j6YAWSU2nO-75" vertex="1">
          <mxGeometry width="30" height="30" as="geometry">
            <mxRectangle width="30" height="30" as="alternateBounds" />
          </mxGeometry>
        </mxCell>
        <mxCell id="pBVoq0yZQ3j6YAWSU2nO-77" value="val_currency_symbol" style="shape=partialRectangle;overflow=hidden;connectable=0;fillColor=#D5E8D4;top=0;left=0;bottom=0;right=0;align=left;spacingLeft=6;strokeColor=#10739e;perimeterSpacing=1;rounded=0;" parent="pBVoq0yZQ3j6YAWSU2nO-75" vertex="1">
          <mxGeometry x="30" width="220" height="30" as="geometry">
            <mxRectangle width="220" height="30" as="alternateBounds" />
          </mxGeometry>
        </mxCell>
        <mxCell id="pBVoq0yZQ3j6YAWSU2nO-78" value="" style="shape=partialRectangle;collapsible=0;dropTarget=0;pointerEvents=0;fillColor=none;points=[[0,0.5],[1,0.5]];portConstraint=eastwest;top=0;left=0;right=0;bottom=0;rounded=0;" parent="pBVoq0yZQ3j6YAWSU2nO-59" vertex="1">
          <mxGeometry y="210" width="250" height="30" as="geometry" />
        </mxCell>
        <mxCell id="pBVoq0yZQ3j6YAWSU2nO-79" value="" style="shape=partialRectangle;overflow=hidden;connectable=0;fillColor=none;top=0;left=0;bottom=0;right=0;rounded=0;" parent="pBVoq0yZQ3j6YAWSU2nO-78" vertex="1">
          <mxGeometry width="30" height="30" as="geometry">
            <mxRectangle width="30" height="30" as="alternateBounds" />
          </mxGeometry>
        </mxCell>
        <mxCell id="pBVoq0yZQ3j6YAWSU2nO-80" value="tst_load_date" style="shape=partialRectangle;overflow=hidden;connectable=0;fillColor=#cce5ff;top=0;left=0;bottom=0;right=0;align=left;spacingLeft=6;strokeColor=#36393d;perimeterSpacing=1;rounded=0;" parent="pBVoq0yZQ3j6YAWSU2nO-78" vertex="1">
          <mxGeometry x="30" width="220" height="30" as="geometry">
            <mxRectangle width="220" height="30" as="alternateBounds" />
          </mxGeometry>
        </mxCell>
        <mxCell id="pBVoq0yZQ3j6YAWSU2nO-81" value="" style="shape=partialRectangle;collapsible=0;dropTarget=0;pointerEvents=0;fillColor=none;points=[[0,0.5],[1,0.5]];portConstraint=eastwest;top=0;left=0;right=0;bottom=0;rounded=0;" parent="pBVoq0yZQ3j6YAWSU2nO-59" vertex="1">
          <mxGeometry y="240" width="250" height="30" as="geometry" />
        </mxCell>
        <mxCell id="pBVoq0yZQ3j6YAWSU2nO-82" value="" style="shape=partialRectangle;overflow=hidden;connectable=0;fillColor=none;top=0;left=0;bottom=0;right=0;rounded=0;" parent="pBVoq0yZQ3j6YAWSU2nO-81" vertex="1">
          <mxGeometry width="30" height="30" as="geometry">
            <mxRectangle width="30" height="30" as="alternateBounds" />
          </mxGeometry>
        </mxCell>
        <mxCell id="pBVoq0yZQ3j6YAWSU2nO-83" value="tst_update_load" style="shape=partialRectangle;overflow=hidden;connectable=0;fillColor=#b1ddf0;top=0;left=0;bottom=0;right=0;align=left;spacingLeft=6;strokeColor=#10739e;perimeterSpacing=1;rounded=0;" parent="pBVoq0yZQ3j6YAWSU2nO-81" vertex="1">
          <mxGeometry x="30" width="220" height="30" as="geometry">
            <mxRectangle width="220" height="30" as="alternateBounds" />
          </mxGeometry>
        </mxCell>
        <mxCell id="pBVoq0yZQ3j6YAWSU2nO-84" value="trd0025_tb_dim_x_UoM" style="shape=table;startSize=30;container=1;collapsible=1;childLayout=tableLayout;fixedRows=1;rowLines=0;fontStyle=1;align=center;resizeLast=1;strokeColor=#000000;rounded=0;" parent="1" vertex="1">
          <mxGeometry x="281" y="-819" width="250" height="180.29411764705878" as="geometry">
            <mxRectangle x="360" width="100" height="30" as="alternateBounds" />
          </mxGeometry>
        </mxCell>
        <mxCell id="pBVoq0yZQ3j6YAWSU2nO-85" value="" style="shape=partialRectangle;collapsible=0;dropTarget=0;pointerEvents=0;fillColor=none;points=[[0,0.5],[1,0.5]];portConstraint=eastwest;top=0;left=0;right=0;bottom=1;rounded=0;" parent="pBVoq0yZQ3j6YAWSU2nO-84" vertex="1">
          <mxGeometry y="30" width="250" height="30" as="geometry" />
        </mxCell>
        <mxCell id="pBVoq0yZQ3j6YAWSU2nO-86" value="PK" style="shape=partialRectangle;overflow=hidden;connectable=0;fillColor=none;top=0;left=0;bottom=0;right=0;fontStyle=1;rounded=0;" parent="pBVoq0yZQ3j6YAWSU2nO-85" vertex="1">
          <mxGeometry width="30" height="30" as="geometry">
            <mxRectangle width="30" height="30" as="alternateBounds" />
          </mxGeometry>
        </mxCell>
        <mxCell id="pBVoq0yZQ3j6YAWSU2nO-87" value="id_UoM" style="shape=partialRectangle;overflow=hidden;connectable=0;fillColor=#ffe6cc;top=0;left=0;bottom=0;right=0;align=left;spacingLeft=6;fontStyle=0;strokeColor=#d79b00;rounded=0;" parent="pBVoq0yZQ3j6YAWSU2nO-85" vertex="1">
          <mxGeometry x="30" width="220" height="30" as="geometry">
            <mxRectangle width="220" height="30" as="alternateBounds" />
          </mxGeometry>
        </mxCell>
        <mxCell id="pBVoq0yZQ3j6YAWSU2nO-88" value="" style="shape=partialRectangle;collapsible=0;dropTarget=0;pointerEvents=0;fillColor=none;points=[[0,0.5],[1,0.5]];portConstraint=eastwest;top=0;left=0;right=0;bottom=0;rounded=0;" parent="pBVoq0yZQ3j6YAWSU2nO-84" vertex="1">
          <mxGeometry y="60" width="250" height="30" as="geometry" />
        </mxCell>
        <mxCell id="pBVoq0yZQ3j6YAWSU2nO-89" value="" style="shape=partialRectangle;overflow=hidden;connectable=0;fillColor=none;top=0;left=0;bottom=0;right=0;rounded=0;" parent="pBVoq0yZQ3j6YAWSU2nO-88" vertex="1">
          <mxGeometry width="30" height="30" as="geometry">
            <mxRectangle width="30" height="30" as="alternateBounds" />
          </mxGeometry>
        </mxCell>
        <mxCell id="pBVoq0yZQ3j6YAWSU2nO-90" value="val_unit_of_measure" style="shape=partialRectangle;overflow=hidden;connectable=0;fillColor=#d5e8d4;top=0;left=0;bottom=0;right=0;align=left;spacingLeft=6;strokeColor=#82b366;perimeterSpacing=1;rounded=0;" parent="pBVoq0yZQ3j6YAWSU2nO-88" vertex="1">
          <mxGeometry x="30" width="220" height="30" as="geometry">
            <mxRectangle width="220" height="30" as="alternateBounds" />
          </mxGeometry>
        </mxCell>
        <mxCell id="pBVoq0yZQ3j6YAWSU2nO-91" value="" style="shape=partialRectangle;collapsible=0;dropTarget=0;pointerEvents=0;fillColor=none;points=[[0,0.5],[1,0.5]];portConstraint=eastwest;top=0;left=0;right=0;bottom=0;rounded=0;" parent="pBVoq0yZQ3j6YAWSU2nO-84" vertex="1">
          <mxGeometry y="90" width="250" height="30" as="geometry" />
        </mxCell>
        <mxCell id="pBVoq0yZQ3j6YAWSU2nO-92" value="" style="shape=partialRectangle;overflow=hidden;connectable=0;fillColor=none;top=0;left=0;bottom=0;right=0;rounded=0;" parent="pBVoq0yZQ3j6YAWSU2nO-91" vertex="1">
          <mxGeometry width="30" height="30" as="geometry">
            <mxRectangle width="30" height="30" as="alternateBounds" />
          </mxGeometry>
        </mxCell>
        <mxCell id="pBVoq0yZQ3j6YAWSU2nO-93" value="val_unit_of_measure_type" style="shape=partialRectangle;overflow=hidden;connectable=0;fillColor=#d5e8d4;top=0;left=0;bottom=0;right=0;align=left;spacingLeft=6;strokeColor=#82b366;perimeterSpacing=1;rounded=0;" parent="pBVoq0yZQ3j6YAWSU2nO-91" vertex="1">
          <mxGeometry x="30" width="220" height="30" as="geometry">
            <mxRectangle width="220" height="30" as="alternateBounds" />
          </mxGeometry>
        </mxCell>
        <mxCell id="pBVoq0yZQ3j6YAWSU2nO-94" value="" style="shape=partialRectangle;collapsible=0;dropTarget=0;pointerEvents=0;fillColor=none;points=[[0,0.5],[1,0.5]];portConstraint=eastwest;top=0;left=0;right=0;bottom=0;rounded=0;" parent="pBVoq0yZQ3j6YAWSU2nO-84" vertex="1">
          <mxGeometry y="120" width="250" height="30" as="geometry" />
        </mxCell>
        <mxCell id="pBVoq0yZQ3j6YAWSU2nO-95" value="" style="shape=partialRectangle;overflow=hidden;connectable=0;fillColor=none;top=0;left=0;bottom=0;right=0;rounded=0;" parent="pBVoq0yZQ3j6YAWSU2nO-94" vertex="1">
          <mxGeometry width="30" height="30" as="geometry">
            <mxRectangle width="30" height="30" as="alternateBounds" />
          </mxGeometry>
        </mxCell>
        <mxCell id="pBVoq0yZQ3j6YAWSU2nO-96" value="tst_load_date" style="shape=partialRectangle;overflow=hidden;connectable=0;fillColor=#cce5ff;top=0;left=0;bottom=0;right=0;align=left;spacingLeft=6;strokeColor=#36393d;perimeterSpacing=1;rounded=0;" parent="pBVoq0yZQ3j6YAWSU2nO-94" vertex="1">
          <mxGeometry x="30" width="220" height="30" as="geometry">
            <mxRectangle width="220" height="30" as="alternateBounds" />
          </mxGeometry>
        </mxCell>
        <mxCell id="pBVoq0yZQ3j6YAWSU2nO-97" value="" style="shape=partialRectangle;collapsible=0;dropTarget=0;pointerEvents=0;fillColor=none;points=[[0,0.5],[1,0.5]];portConstraint=eastwest;top=0;left=0;right=0;bottom=0;rounded=0;" parent="pBVoq0yZQ3j6YAWSU2nO-84" vertex="1">
          <mxGeometry y="150" width="250" height="30" as="geometry" />
        </mxCell>
        <mxCell id="pBVoq0yZQ3j6YAWSU2nO-98" value="" style="shape=partialRectangle;overflow=hidden;connectable=0;fillColor=none;top=0;left=0;bottom=0;right=0;rounded=0;" parent="pBVoq0yZQ3j6YAWSU2nO-97" vertex="1">
          <mxGeometry width="30" height="30" as="geometry">
            <mxRectangle width="30" height="30" as="alternateBounds" />
          </mxGeometry>
        </mxCell>
        <mxCell id="pBVoq0yZQ3j6YAWSU2nO-99" value="tst_update_load" style="shape=partialRectangle;overflow=hidden;connectable=0;fillColor=#b1ddf0;top=0;left=0;bottom=0;right=0;align=left;spacingLeft=6;strokeColor=#10739e;perimeterSpacing=1;rounded=0;" parent="pBVoq0yZQ3j6YAWSU2nO-97" vertex="1">
          <mxGeometry x="30" width="220" height="30" as="geometry">
            <mxRectangle width="220" height="30" as="alternateBounds" />
          </mxGeometry>
        </mxCell>
        <mxCell id="pBVoq0yZQ3j6YAWSU2nO-100" value="trd0025_tb_dim_x_symbol" style="shape=table;startSize=30;container=1;collapsible=1;childLayout=tableLayout;fixedRows=1;rowLines=0;fontStyle=1;align=center;resizeLast=1;strokeColor=#000000;rounded=0;" parent="1" vertex="1">
          <mxGeometry x="290" y="55" width="250" height="180.29411764705878" as="geometry">
            <mxRectangle x="360" width="100" height="30" as="alternateBounds" />
          </mxGeometry>
        </mxCell>
        <mxCell id="pBVoq0yZQ3j6YAWSU2nO-101" value="" style="shape=partialRectangle;collapsible=0;dropTarget=0;pointerEvents=0;fillColor=none;points=[[0,0.5],[1,0.5]];portConstraint=eastwest;top=0;left=0;right=0;bottom=1;rounded=0;" parent="pBVoq0yZQ3j6YAWSU2nO-100" vertex="1">
          <mxGeometry y="30" width="250" height="30" as="geometry" />
        </mxCell>
        <mxCell id="pBVoq0yZQ3j6YAWSU2nO-102" value="PK" style="shape=partialRectangle;overflow=hidden;connectable=0;fillColor=none;top=0;left=0;bottom=0;right=0;fontStyle=1;rounded=0;" parent="pBVoq0yZQ3j6YAWSU2nO-101" vertex="1">
          <mxGeometry width="30" height="30" as="geometry">
            <mxRectangle width="30" height="30" as="alternateBounds" />
          </mxGeometry>
        </mxCell>
        <mxCell id="pBVoq0yZQ3j6YAWSU2nO-103" value="id_symbol" style="shape=partialRectangle;overflow=hidden;connectable=0;fillColor=#ffe6cc;top=0;left=0;bottom=0;right=0;align=left;spacingLeft=6;fontStyle=0;strokeColor=#d79b00;rounded=0;" parent="pBVoq0yZQ3j6YAWSU2nO-101" vertex="1">
          <mxGeometry x="30" width="220" height="30" as="geometry">
            <mxRectangle width="220" height="30" as="alternateBounds" />
          </mxGeometry>
        </mxCell>
        <mxCell id="pBVoq0yZQ3j6YAWSU2nO-104" value="" style="shape=partialRectangle;collapsible=0;dropTarget=0;pointerEvents=0;fillColor=none;points=[[0,0.5],[1,0.5]];portConstraint=eastwest;top=0;left=0;right=0;bottom=0;rounded=0;" parent="pBVoq0yZQ3j6YAWSU2nO-100" vertex="1">
          <mxGeometry y="60" width="250" height="30" as="geometry" />
        </mxCell>
        <mxCell id="pBVoq0yZQ3j6YAWSU2nO-105" value="" style="shape=partialRectangle;overflow=hidden;connectable=0;fillColor=none;top=0;left=0;bottom=0;right=0;rounded=0;" parent="pBVoq0yZQ3j6YAWSU2nO-104" vertex="1">
          <mxGeometry width="30" height="30" as="geometry">
            <mxRectangle width="30" height="30" as="alternateBounds" />
          </mxGeometry>
        </mxCell>
        <mxCell id="pBVoq0yZQ3j6YAWSU2nO-106" value="val_symbol" style="shape=partialRectangle;overflow=hidden;connectable=0;fillColor=#d5e8d4;top=0;left=0;bottom=0;right=0;align=left;spacingLeft=6;strokeColor=#82b366;perimeterSpacing=1;rounded=0;" parent="pBVoq0yZQ3j6YAWSU2nO-104" vertex="1">
          <mxGeometry x="30" width="220" height="30" as="geometry">
            <mxRectangle width="220" height="30" as="alternateBounds" />
          </mxGeometry>
        </mxCell>
        <mxCell id="pBVoq0yZQ3j6YAWSU2nO-107" value="" style="shape=partialRectangle;collapsible=0;dropTarget=0;pointerEvents=0;fillColor=none;points=[[0,0.5],[1,0.5]];portConstraint=eastwest;top=0;left=0;right=0;bottom=0;rounded=0;" parent="pBVoq0yZQ3j6YAWSU2nO-100" vertex="1">
          <mxGeometry y="90" width="250" height="30" as="geometry" />
        </mxCell>
        <mxCell id="pBVoq0yZQ3j6YAWSU2nO-108" value="" style="shape=partialRectangle;overflow=hidden;connectable=0;fillColor=none;top=0;left=0;bottom=0;right=0;rounded=0;" parent="pBVoq0yZQ3j6YAWSU2nO-107" vertex="1">
          <mxGeometry width="30" height="30" as="geometry">
            <mxRectangle width="30" height="30" as="alternateBounds" />
          </mxGeometry>
        </mxCell>
        <mxCell id="pBVoq0yZQ3j6YAWSU2nO-109" value="val_contract_type" style="shape=partialRectangle;overflow=hidden;connectable=0;fillColor=#d5e8d4;top=0;left=0;bottom=0;right=0;align=left;spacingLeft=6;strokeColor=#82b366;perimeterSpacing=1;rounded=0;" parent="pBVoq0yZQ3j6YAWSU2nO-107" vertex="1">
          <mxGeometry x="30" width="220" height="30" as="geometry">
            <mxRectangle width="220" height="30" as="alternateBounds" />
          </mxGeometry>
        </mxCell>
        <mxCell id="pBVoq0yZQ3j6YAWSU2nO-110" value="" style="shape=partialRectangle;collapsible=0;dropTarget=0;pointerEvents=0;fillColor=none;points=[[0,0.5],[1,0.5]];portConstraint=eastwest;top=0;left=0;right=0;bottom=0;rounded=0;" parent="pBVoq0yZQ3j6YAWSU2nO-100" vertex="1">
          <mxGeometry y="120" width="250" height="30" as="geometry" />
        </mxCell>
        <mxCell id="pBVoq0yZQ3j6YAWSU2nO-111" value="" style="shape=partialRectangle;overflow=hidden;connectable=0;fillColor=none;top=0;left=0;bottom=0;right=0;rounded=0;" parent="pBVoq0yZQ3j6YAWSU2nO-110" vertex="1">
          <mxGeometry width="30" height="30" as="geometry">
            <mxRectangle width="30" height="30" as="alternateBounds" />
          </mxGeometry>
        </mxCell>
        <mxCell id="pBVoq0yZQ3j6YAWSU2nO-112" value="tst_load_date" style="shape=partialRectangle;overflow=hidden;connectable=0;fillColor=#cce5ff;top=0;left=0;bottom=0;right=0;align=left;spacingLeft=6;strokeColor=#36393d;perimeterSpacing=1;rounded=0;" parent="pBVoq0yZQ3j6YAWSU2nO-110" vertex="1">
          <mxGeometry x="30" width="220" height="30" as="geometry">
            <mxRectangle width="220" height="30" as="alternateBounds" />
          </mxGeometry>
        </mxCell>
        <mxCell id="pBVoq0yZQ3j6YAWSU2nO-113" value="" style="shape=partialRectangle;collapsible=0;dropTarget=0;pointerEvents=0;fillColor=none;points=[[0,0.5],[1,0.5]];portConstraint=eastwest;top=0;left=0;right=0;bottom=0;rounded=0;" parent="pBVoq0yZQ3j6YAWSU2nO-100" vertex="1">
          <mxGeometry y="150" width="250" height="30" as="geometry" />
        </mxCell>
        <mxCell id="pBVoq0yZQ3j6YAWSU2nO-114" value="" style="shape=partialRectangle;overflow=hidden;connectable=0;fillColor=none;top=0;left=0;bottom=0;right=0;rounded=0;" parent="pBVoq0yZQ3j6YAWSU2nO-113" vertex="1">
          <mxGeometry width="30" height="30" as="geometry">
            <mxRectangle width="30" height="30" as="alternateBounds" />
          </mxGeometry>
        </mxCell>
        <mxCell id="pBVoq0yZQ3j6YAWSU2nO-115" value="tst_update_load" style="shape=partialRectangle;overflow=hidden;connectable=0;fillColor=#b1ddf0;top=0;left=0;bottom=0;right=0;align=left;spacingLeft=6;strokeColor=#10739e;perimeterSpacing=1;rounded=0;" parent="pBVoq0yZQ3j6YAWSU2nO-113" vertex="1">
          <mxGeometry x="30" width="220" height="30" as="geometry">
            <mxRectangle width="220" height="30" as="alternateBounds" />
          </mxGeometry>
        </mxCell>
        <mxCell id="pBVoq0yZQ3j6YAWSU2nO-116" value="trd0025_tb_dim_x_calendar" style="shape=table;startSize=30;container=1;collapsible=1;childLayout=tableLayout;fixedRows=1;rowLines=0;fontStyle=1;align=center;resizeLast=1;strokeColor=#000000;rounded=0;" parent="1" vertex="1">
          <mxGeometry x="-670" y="-9.71" width="250" height="390.2941176470588" as="geometry">
            <mxRectangle x="360" width="100" height="30" as="alternateBounds" />
          </mxGeometry>
        </mxCell>
        <mxCell id="pBVoq0yZQ3j6YAWSU2nO-117" value="" style="shape=partialRectangle;collapsible=0;dropTarget=0;pointerEvents=0;fillColor=none;points=[[0,0.5],[1,0.5]];portConstraint=eastwest;top=0;left=0;right=0;bottom=1;rounded=0;" parent="pBVoq0yZQ3j6YAWSU2nO-116" vertex="1">
          <mxGeometry y="30" width="250" height="30" as="geometry" />
        </mxCell>
        <mxCell id="pBVoq0yZQ3j6YAWSU2nO-118" value="PK" style="shape=partialRectangle;overflow=hidden;connectable=0;fillColor=none;top=0;left=0;bottom=0;right=0;fontStyle=1;rounded=0;" parent="pBVoq0yZQ3j6YAWSU2nO-117" vertex="1">
          <mxGeometry width="30" height="30" as="geometry">
            <mxRectangle width="30" height="30" as="alternateBounds" />
          </mxGeometry>
        </mxCell>
        <mxCell id="pBVoq0yZQ3j6YAWSU2nO-119" value="id_calendar" style="shape=partialRectangle;overflow=hidden;connectable=0;fillColor=#ffe6cc;top=0;left=0;bottom=0;right=0;align=left;spacingLeft=6;fontStyle=0;strokeColor=#d79b00;rounded=0;" parent="pBVoq0yZQ3j6YAWSU2nO-117" vertex="1">
          <mxGeometry x="30" width="220" height="30" as="geometry">
            <mxRectangle width="220" height="30" as="alternateBounds" />
          </mxGeometry>
        </mxCell>
        <mxCell id="pBVoq0yZQ3j6YAWSU2nO-120" value="" style="shape=partialRectangle;collapsible=0;dropTarget=0;pointerEvents=0;fillColor=none;points=[[0,0.5],[1,0.5]];portConstraint=eastwest;top=0;left=0;right=0;bottom=0;rounded=0;" parent="pBVoq0yZQ3j6YAWSU2nO-116" vertex="1">
          <mxGeometry y="60" width="250" height="30" as="geometry" />
        </mxCell>
        <mxCell id="pBVoq0yZQ3j6YAWSU2nO-121" value="" style="shape=partialRectangle;overflow=hidden;connectable=0;fillColor=none;top=0;left=0;bottom=0;right=0;rounded=0;" parent="pBVoq0yZQ3j6YAWSU2nO-120" vertex="1">
          <mxGeometry width="30" height="30" as="geometry">
            <mxRectangle width="30" height="30" as="alternateBounds" />
          </mxGeometry>
        </mxCell>
        <mxCell id="pBVoq0yZQ3j6YAWSU2nO-122" value="num_year" style="shape=partialRectangle;overflow=hidden;connectable=0;fillColor=#d5e8d4;top=0;left=0;bottom=0;right=0;align=left;spacingLeft=6;strokeColor=#000000;perimeterSpacing=1;rounded=0;" parent="pBVoq0yZQ3j6YAWSU2nO-120" vertex="1">
          <mxGeometry x="30" width="220" height="30" as="geometry">
            <mxRectangle width="220" height="30" as="alternateBounds" />
          </mxGeometry>
        </mxCell>
        <mxCell id="pBVoq0yZQ3j6YAWSU2nO-123" value="" style="shape=partialRectangle;collapsible=0;dropTarget=0;pointerEvents=0;fillColor=none;points=[[0,0.5],[1,0.5]];portConstraint=eastwest;top=0;left=0;right=0;bottom=0;rounded=0;" parent="pBVoq0yZQ3j6YAWSU2nO-116" vertex="1">
          <mxGeometry y="90" width="250" height="30" as="geometry" />
        </mxCell>
        <mxCell id="pBVoq0yZQ3j6YAWSU2nO-124" value="" style="shape=partialRectangle;overflow=hidden;connectable=0;fillColor=none;top=0;left=0;bottom=0;right=0;rounded=0;" parent="pBVoq0yZQ3j6YAWSU2nO-123" vertex="1">
          <mxGeometry width="30" height="30" as="geometry">
            <mxRectangle width="30" height="30" as="alternateBounds" />
          </mxGeometry>
        </mxCell>
        <mxCell id="pBVoq0yZQ3j6YAWSU2nO-125" value="num_semester" style="shape=partialRectangle;overflow=hidden;connectable=0;fillColor=#d5e8d4;top=0;left=0;bottom=0;right=0;align=left;spacingLeft=6;strokeColor=#82b366;perimeterSpacing=1;rounded=0;" parent="pBVoq0yZQ3j6YAWSU2nO-123" vertex="1">
          <mxGeometry x="30" width="220" height="30" as="geometry">
            <mxRectangle width="220" height="30" as="alternateBounds" />
          </mxGeometry>
        </mxCell>
        <mxCell id="pBVoq0yZQ3j6YAWSU2nO-126" value="" style="shape=partialRectangle;collapsible=0;dropTarget=0;pointerEvents=0;fillColor=none;points=[[0,0.5],[1,0.5]];portConstraint=eastwest;top=0;left=0;right=0;bottom=0;rounded=0;" parent="pBVoq0yZQ3j6YAWSU2nO-116" vertex="1">
          <mxGeometry y="120" width="250" height="30" as="geometry" />
        </mxCell>
        <mxCell id="pBVoq0yZQ3j6YAWSU2nO-127" value="" style="shape=partialRectangle;overflow=hidden;connectable=0;fillColor=none;top=0;left=0;bottom=0;right=0;rounded=0;" parent="pBVoq0yZQ3j6YAWSU2nO-126" vertex="1">
          <mxGeometry width="30" height="30" as="geometry">
            <mxRectangle width="30" height="30" as="alternateBounds" />
          </mxGeometry>
        </mxCell>
        <mxCell id="pBVoq0yZQ3j6YAWSU2nO-128" value="num_quarter" style="shape=partialRectangle;overflow=hidden;connectable=0;fillColor=#d5e8d4;top=0;left=0;bottom=0;right=0;align=left;spacingLeft=6;strokeColor=#82b366;perimeterSpacing=1;rounded=0;" parent="pBVoq0yZQ3j6YAWSU2nO-126" vertex="1">
          <mxGeometry x="30" width="220" height="30" as="geometry">
            <mxRectangle width="220" height="30" as="alternateBounds" />
          </mxGeometry>
        </mxCell>
        <mxCell id="pBVoq0yZQ3j6YAWSU2nO-129" value="" style="shape=partialRectangle;collapsible=0;dropTarget=0;pointerEvents=0;fillColor=none;points=[[0,0.5],[1,0.5]];portConstraint=eastwest;top=0;left=0;right=0;bottom=0;rounded=0;" parent="pBVoq0yZQ3j6YAWSU2nO-116" vertex="1">
          <mxGeometry y="150" width="250" height="30" as="geometry" />
        </mxCell>
        <mxCell id="pBVoq0yZQ3j6YAWSU2nO-130" value="" style="shape=partialRectangle;overflow=hidden;connectable=0;fillColor=none;top=0;left=0;bottom=0;right=0;rounded=0;" parent="pBVoq0yZQ3j6YAWSU2nO-129" vertex="1">
          <mxGeometry width="30" height="30" as="geometry">
            <mxRectangle width="30" height="30" as="alternateBounds" />
          </mxGeometry>
        </mxCell>
        <mxCell id="pBVoq0yZQ3j6YAWSU2nO-131" value="num_month" style="shape=partialRectangle;overflow=hidden;connectable=0;fillColor=#d5e8d4;top=0;left=0;bottom=0;right=0;align=left;spacingLeft=6;strokeColor=#82b366;perimeterSpacing=1;rounded=0;" parent="pBVoq0yZQ3j6YAWSU2nO-129" vertex="1">
          <mxGeometry x="30" width="220" height="30" as="geometry">
            <mxRectangle width="220" height="30" as="alternateBounds" />
          </mxGeometry>
        </mxCell>
        <mxCell id="pBVoq0yZQ3j6YAWSU2nO-132" value="" style="shape=partialRectangle;collapsible=0;dropTarget=0;pointerEvents=0;fillColor=none;points=[[0,0.5],[1,0.5]];portConstraint=eastwest;top=0;left=0;right=0;bottom=0;rounded=0;" parent="pBVoq0yZQ3j6YAWSU2nO-116" vertex="1">
          <mxGeometry y="180" width="250" height="30" as="geometry" />
        </mxCell>
        <mxCell id="pBVoq0yZQ3j6YAWSU2nO-133" value="" style="shape=partialRectangle;overflow=hidden;connectable=0;fillColor=none;top=0;left=0;bottom=0;right=0;rounded=0;" parent="pBVoq0yZQ3j6YAWSU2nO-132" vertex="1">
          <mxGeometry width="30" height="30" as="geometry">
            <mxRectangle width="30" height="30" as="alternateBounds" />
          </mxGeometry>
        </mxCell>
        <mxCell id="pBVoq0yZQ3j6YAWSU2nO-134" value="num_fortnight" style="shape=partialRectangle;overflow=hidden;connectable=0;fillColor=#D5E8D4;top=0;left=0;bottom=0;right=0;align=left;spacingLeft=6;strokeColor=#10739e;perimeterSpacing=1;rounded=0;" parent="pBVoq0yZQ3j6YAWSU2nO-132" vertex="1">
          <mxGeometry x="30" width="220" height="30" as="geometry">
            <mxRectangle width="220" height="30" as="alternateBounds" />
          </mxGeometry>
        </mxCell>
        <mxCell id="pBVoq0yZQ3j6YAWSU2nO-135" value="" style="shape=partialRectangle;collapsible=0;dropTarget=0;pointerEvents=0;fillColor=none;points=[[0,0.5],[1,0.5]];portConstraint=eastwest;top=0;left=0;right=0;bottom=0;rounded=0;" parent="pBVoq0yZQ3j6YAWSU2nO-116" vertex="1">
          <mxGeometry y="210" width="250" height="30" as="geometry" />
        </mxCell>
        <mxCell id="pBVoq0yZQ3j6YAWSU2nO-136" value="" style="shape=partialRectangle;overflow=hidden;connectable=0;fillColor=none;top=0;left=0;bottom=0;right=0;rounded=0;" parent="pBVoq0yZQ3j6YAWSU2nO-135" vertex="1">
          <mxGeometry width="30" height="30" as="geometry">
            <mxRectangle width="30" height="30" as="alternateBounds" />
          </mxGeometry>
        </mxCell>
        <mxCell id="pBVoq0yZQ3j6YAWSU2nO-137" value="num_week" style="shape=partialRectangle;overflow=hidden;connectable=0;fillColor=#D5E8D4;top=0;left=0;bottom=0;right=0;align=left;spacingLeft=6;strokeColor=#10739e;perimeterSpacing=1;rounded=0;" parent="pBVoq0yZQ3j6YAWSU2nO-135" vertex="1">
          <mxGeometry x="30" width="220" height="30" as="geometry">
            <mxRectangle width="220" height="30" as="alternateBounds" />
          </mxGeometry>
        </mxCell>
        <mxCell id="pBVoq0yZQ3j6YAWSU2nO-138" value="" style="shape=partialRectangle;collapsible=0;dropTarget=0;pointerEvents=0;fillColor=none;points=[[0,0.5],[1,0.5]];portConstraint=eastwest;top=0;left=0;right=0;bottom=0;rounded=0;" parent="pBVoq0yZQ3j6YAWSU2nO-116" vertex="1">
          <mxGeometry y="240" width="250" height="30" as="geometry" />
        </mxCell>
        <mxCell id="pBVoq0yZQ3j6YAWSU2nO-139" value="" style="shape=partialRectangle;overflow=hidden;connectable=0;fillColor=none;top=0;left=0;bottom=0;right=0;rounded=0;" parent="pBVoq0yZQ3j6YAWSU2nO-138" vertex="1">
          <mxGeometry width="30" height="30" as="geometry">
            <mxRectangle width="30" height="30" as="alternateBounds" />
          </mxGeometry>
        </mxCell>
        <mxCell id="pBVoq0yZQ3j6YAWSU2nO-140" value="num_day" style="shape=partialRectangle;overflow=hidden;connectable=0;fillColor=#D5E8D4;top=0;left=0;bottom=0;right=0;align=left;spacingLeft=6;strokeColor=#10739e;perimeterSpacing=1;rounded=0;" parent="pBVoq0yZQ3j6YAWSU2nO-138" vertex="1">
          <mxGeometry x="30" width="220" height="30" as="geometry">
            <mxRectangle width="220" height="30" as="alternateBounds" />
          </mxGeometry>
        </mxCell>
        <mxCell id="pBVoq0yZQ3j6YAWSU2nO-141" value="" style="shape=partialRectangle;collapsible=0;dropTarget=0;pointerEvents=0;fillColor=none;points=[[0,0.5],[1,0.5]];portConstraint=eastwest;top=0;left=0;right=0;bottom=0;rounded=0;" parent="pBVoq0yZQ3j6YAWSU2nO-116" vertex="1">
          <mxGeometry y="270" width="250" height="30" as="geometry" />
        </mxCell>
        <mxCell id="pBVoq0yZQ3j6YAWSU2nO-142" value="" style="shape=partialRectangle;overflow=hidden;connectable=0;fillColor=none;top=0;left=0;bottom=0;right=0;rounded=0;" parent="pBVoq0yZQ3j6YAWSU2nO-141" vertex="1">
          <mxGeometry width="30" height="30" as="geometry">
            <mxRectangle width="30" height="30" as="alternateBounds" />
          </mxGeometry>
        </mxCell>
        <mxCell id="pBVoq0yZQ3j6YAWSU2nO-143" value="val_month_name" style="shape=partialRectangle;overflow=hidden;connectable=0;fillColor=#D5E8D4;top=0;left=0;bottom=0;right=0;align=left;spacingLeft=6;strokeColor=#10739e;perimeterSpacing=1;rounded=0;" parent="pBVoq0yZQ3j6YAWSU2nO-141" vertex="1">
          <mxGeometry x="30" width="220" height="30" as="geometry">
            <mxRectangle width="220" height="30" as="alternateBounds" />
          </mxGeometry>
        </mxCell>
        <mxCell id="pBVoq0yZQ3j6YAWSU2nO-144" value="" style="shape=partialRectangle;collapsible=0;dropTarget=0;pointerEvents=0;fillColor=none;points=[[0,0.5],[1,0.5]];portConstraint=eastwest;top=0;left=0;right=0;bottom=0;rounded=0;" parent="pBVoq0yZQ3j6YAWSU2nO-116" vertex="1">
          <mxGeometry y="300" width="250" height="30" as="geometry" />
        </mxCell>
        <mxCell id="pBVoq0yZQ3j6YAWSU2nO-145" value="" style="shape=partialRectangle;overflow=hidden;connectable=0;fillColor=none;top=0;left=0;bottom=0;right=0;rounded=0;" parent="pBVoq0yZQ3j6YAWSU2nO-144" vertex="1">
          <mxGeometry width="30" height="30" as="geometry">
            <mxRectangle width="30" height="30" as="alternateBounds" />
          </mxGeometry>
        </mxCell>
        <mxCell id="pBVoq0yZQ3j6YAWSU2nO-146" value="val_day_name" style="shape=partialRectangle;overflow=hidden;connectable=0;fillColor=#D5E8D4;top=0;left=0;bottom=0;right=0;align=left;spacingLeft=6;strokeColor=#10739e;perimeterSpacing=1;rounded=0;" parent="pBVoq0yZQ3j6YAWSU2nO-144" vertex="1">
          <mxGeometry x="30" width="220" height="30" as="geometry">
            <mxRectangle width="220" height="30" as="alternateBounds" />
          </mxGeometry>
        </mxCell>
        <mxCell id="pBVoq0yZQ3j6YAWSU2nO-147" value="" style="shape=partialRectangle;collapsible=0;dropTarget=0;pointerEvents=0;fillColor=none;points=[[0,0.5],[1,0.5]];portConstraint=eastwest;top=0;left=0;right=0;bottom=0;rounded=0;" parent="pBVoq0yZQ3j6YAWSU2nO-116" vertex="1">
          <mxGeometry y="330" width="250" height="30" as="geometry" />
        </mxCell>
        <mxCell id="pBVoq0yZQ3j6YAWSU2nO-148" value="" style="shape=partialRectangle;overflow=hidden;connectable=0;fillColor=none;top=0;left=0;bottom=0;right=0;rounded=0;" parent="pBVoq0yZQ3j6YAWSU2nO-147" vertex="1">
          <mxGeometry width="30" height="30" as="geometry">
            <mxRectangle width="30" height="30" as="alternateBounds" />
          </mxGeometry>
        </mxCell>
        <mxCell id="pBVoq0yZQ3j6YAWSU2nO-149" value="tst_load_date" style="shape=partialRectangle;overflow=hidden;connectable=0;fillColor=#cce5ff;top=0;left=0;bottom=0;right=0;align=left;spacingLeft=6;strokeColor=#36393d;perimeterSpacing=1;rounded=0;" parent="pBVoq0yZQ3j6YAWSU2nO-147" vertex="1">
          <mxGeometry x="30" width="220" height="30" as="geometry">
            <mxRectangle width="220" height="30" as="alternateBounds" />
          </mxGeometry>
        </mxCell>
        <mxCell id="pBVoq0yZQ3j6YAWSU2nO-150" value="" style="shape=partialRectangle;collapsible=0;dropTarget=0;pointerEvents=0;fillColor=none;points=[[0,0.5],[1,0.5]];portConstraint=eastwest;top=0;left=0;right=0;bottom=0;rounded=0;" parent="pBVoq0yZQ3j6YAWSU2nO-116" vertex="1">
          <mxGeometry y="360" width="250" height="30" as="geometry" />
        </mxCell>
        <mxCell id="pBVoq0yZQ3j6YAWSU2nO-151" value="" style="shape=partialRectangle;overflow=hidden;connectable=0;fillColor=none;top=0;left=0;bottom=0;right=0;rounded=0;" parent="pBVoq0yZQ3j6YAWSU2nO-150" vertex="1">
          <mxGeometry width="30" height="30" as="geometry">
            <mxRectangle width="30" height="30" as="alternateBounds" />
          </mxGeometry>
        </mxCell>
        <mxCell id="pBVoq0yZQ3j6YAWSU2nO-152" value="tst_update_load" style="shape=partialRectangle;overflow=hidden;connectable=0;fillColor=#b1ddf0;top=0;left=0;bottom=0;right=0;align=left;spacingLeft=6;strokeColor=#10739e;perimeterSpacing=1;rounded=0;" parent="pBVoq0yZQ3j6YAWSU2nO-150" vertex="1">
          <mxGeometry x="30" width="220" height="30" as="geometry">
            <mxRectangle width="220" height="30" as="alternateBounds" />
          </mxGeometry>
        </mxCell>
        <mxCell id="eUXpXqpGrS1Ki1ExuDuf-4" value="trd0025_tb_dim_x_description" style="shape=table;startSize=30;container=1;collapsible=1;childLayout=tableLayout;fixedRows=1;rowLines=0;fontStyle=1;align=center;resizeLast=1;strokeColor=#000000;rounded=0;" parent="1" vertex="1">
          <mxGeometry x="281" y="-160" width="250" height="150.29411764705878" as="geometry">
            <mxRectangle x="360" width="100" height="30" as="alternateBounds" />
          </mxGeometry>
        </mxCell>
        <mxCell id="eUXpXqpGrS1Ki1ExuDuf-5" value="" style="shape=partialRectangle;collapsible=0;dropTarget=0;pointerEvents=0;fillColor=none;points=[[0,0.5],[1,0.5]];portConstraint=eastwest;top=0;left=0;right=0;bottom=1;rounded=0;" parent="eUXpXqpGrS1Ki1ExuDuf-4" vertex="1">
          <mxGeometry y="30" width="250" height="30" as="geometry" />
        </mxCell>
        <mxCell id="eUXpXqpGrS1Ki1ExuDuf-6" value="PK" style="shape=partialRectangle;overflow=hidden;connectable=0;fillColor=none;top=0;left=0;bottom=0;right=0;fontStyle=1;rounded=0;" parent="eUXpXqpGrS1Ki1ExuDuf-5" vertex="1">
          <mxGeometry width="30" height="30" as="geometry">
            <mxRectangle width="30" height="30" as="alternateBounds" />
          </mxGeometry>
        </mxCell>
        <mxCell id="eUXpXqpGrS1Ki1ExuDuf-7" value="id_description" style="shape=partialRectangle;overflow=hidden;connectable=0;fillColor=#ffe6cc;top=0;left=0;bottom=0;right=0;align=left;spacingLeft=6;fontStyle=0;strokeColor=#d79b00;rounded=0;" parent="eUXpXqpGrS1Ki1ExuDuf-5" vertex="1">
          <mxGeometry x="30" width="220" height="30" as="geometry">
            <mxRectangle width="220" height="30" as="alternateBounds" />
          </mxGeometry>
        </mxCell>
        <mxCell id="eUXpXqpGrS1Ki1ExuDuf-8" value="" style="shape=partialRectangle;collapsible=0;dropTarget=0;pointerEvents=0;fillColor=none;points=[[0,0.5],[1,0.5]];portConstraint=eastwest;top=0;left=0;right=0;bottom=0;rounded=0;" parent="eUXpXqpGrS1Ki1ExuDuf-4" vertex="1">
          <mxGeometry y="60" width="250" height="30" as="geometry" />
        </mxCell>
        <mxCell id="eUXpXqpGrS1Ki1ExuDuf-9" value="" style="shape=partialRectangle;overflow=hidden;connectable=0;fillColor=none;top=0;left=0;bottom=0;right=0;rounded=0;" parent="eUXpXqpGrS1Ki1ExuDuf-8" vertex="1">
          <mxGeometry width="30" height="30" as="geometry">
            <mxRectangle width="30" height="30" as="alternateBounds" />
          </mxGeometry>
        </mxCell>
        <mxCell id="eUXpXqpGrS1Ki1ExuDuf-10" value="val_description" style="shape=partialRectangle;overflow=hidden;connectable=0;fillColor=#d5e8d4;top=0;left=0;bottom=0;right=0;align=left;spacingLeft=6;strokeColor=#82b366;perimeterSpacing=1;rounded=0;" parent="eUXpXqpGrS1Ki1ExuDuf-8" vertex="1">
          <mxGeometry x="30" width="220" height="30" as="geometry">
            <mxRectangle width="220" height="30" as="alternateBounds" />
          </mxGeometry>
        </mxCell>
        <mxCell id="eUXpXqpGrS1Ki1ExuDuf-14" value="" style="shape=partialRectangle;collapsible=0;dropTarget=0;pointerEvents=0;fillColor=none;points=[[0,0.5],[1,0.5]];portConstraint=eastwest;top=0;left=0;right=0;bottom=0;rounded=0;" parent="eUXpXqpGrS1Ki1ExuDuf-4" vertex="1">
          <mxGeometry y="90" width="250" height="30" as="geometry" />
        </mxCell>
        <mxCell id="eUXpXqpGrS1Ki1ExuDuf-15" value="" style="shape=partialRectangle;overflow=hidden;connectable=0;fillColor=none;top=0;left=0;bottom=0;right=0;rounded=0;" parent="eUXpXqpGrS1Ki1ExuDuf-14" vertex="1">
          <mxGeometry width="30" height="30" as="geometry">
            <mxRectangle width="30" height="30" as="alternateBounds" />
          </mxGeometry>
        </mxCell>
        <mxCell id="eUXpXqpGrS1Ki1ExuDuf-16" value="tst_load_date" style="shape=partialRectangle;overflow=hidden;connectable=0;fillColor=#cce5ff;top=0;left=0;bottom=0;right=0;align=left;spacingLeft=6;strokeColor=#36393d;perimeterSpacing=1;rounded=0;" parent="eUXpXqpGrS1Ki1ExuDuf-14" vertex="1">
          <mxGeometry x="30" width="220" height="30" as="geometry">
            <mxRectangle width="220" height="30" as="alternateBounds" />
          </mxGeometry>
        </mxCell>
        <mxCell id="eUXpXqpGrS1Ki1ExuDuf-17" value="" style="shape=partialRectangle;collapsible=0;dropTarget=0;pointerEvents=0;fillColor=none;points=[[0,0.5],[1,0.5]];portConstraint=eastwest;top=0;left=0;right=0;bottom=0;rounded=0;" parent="eUXpXqpGrS1Ki1ExuDuf-4" vertex="1">
          <mxGeometry y="120" width="250" height="30" as="geometry" />
        </mxCell>
        <mxCell id="eUXpXqpGrS1Ki1ExuDuf-18" value="" style="shape=partialRectangle;overflow=hidden;connectable=0;fillColor=none;top=0;left=0;bottom=0;right=0;rounded=0;" parent="eUXpXqpGrS1Ki1ExuDuf-17" vertex="1">
          <mxGeometry width="30" height="30" as="geometry">
            <mxRectangle width="30" height="30" as="alternateBounds" />
          </mxGeometry>
        </mxCell>
        <mxCell id="eUXpXqpGrS1Ki1ExuDuf-19" value="tst_update_load" style="shape=partialRectangle;overflow=hidden;connectable=0;fillColor=#b1ddf0;top=0;left=0;bottom=0;right=0;align=left;spacingLeft=6;strokeColor=#10739e;perimeterSpacing=1;rounded=0;" parent="eUXpXqpGrS1Ki1ExuDuf-17" vertex="1">
          <mxGeometry x="30" width="220" height="30" as="geometry">
            <mxRectangle width="220" height="30" as="alternateBounds" />
          </mxGeometry>
        </mxCell>
        <mxCell id="eUXpXqpGrS1Ki1ExuDuf-20" style="edgeStyle=orthogonalEdgeStyle;rounded=0;orthogonalLoop=1;jettySize=auto;html=1;entryX=-0.007;entryY=0.101;entryDx=0;entryDy=0;entryPerimeter=0;exitX=1;exitY=0.5;exitDx=0;exitDy=0;" parent="1" source="pBVoq0yZQ3j6YAWSU2nO-32" target="eUXpXqpGrS1Ki1ExuDuf-4" edge="1">
          <mxGeometry relative="1" as="geometry">
            <Array as="points">
              <mxPoint x="150" y="-247" />
              <mxPoint x="150" y="-145" />
            </Array>
          </mxGeometry>
        </mxCell>
        <mxCell id="eUXpXqpGrS1Ki1ExuDuf-21" style="edgeStyle=orthogonalEdgeStyle;rounded=0;orthogonalLoop=1;jettySize=auto;html=1;entryX=0;entryY=0.5;entryDx=0;entryDy=0;exitX=1;exitY=0.5;exitDx=0;exitDy=0;" parent="1" source="pBVoq0yZQ3j6YAWSU2nO-35" target="pBVoq0yZQ3j6YAWSU2nO-101" edge="1">
          <mxGeometry relative="1" as="geometry">
            <Array as="points">
              <mxPoint x="49" y="-220" />
              <mxPoint x="120" y="-220" />
              <mxPoint x="120" y="100" />
            </Array>
          </mxGeometry>
        </mxCell>
        <mxCell id="eUXpXqpGrS1Ki1ExuDuf-22" style="edgeStyle=orthogonalEdgeStyle;rounded=0;orthogonalLoop=1;jettySize=auto;html=1;entryX=0;entryY=0.5;entryDx=0;entryDy=0;exitX=1;exitY=0.5;exitDx=0;exitDy=0;" parent="1" source="pBVoq0yZQ3j6YAWSU2nO-29" target="pBVoq0yZQ3j6YAWSU2nO-60" edge="1">
          <mxGeometry relative="1" as="geometry">
            <Array as="points">
              <mxPoint x="49" y="-280" />
              <mxPoint x="150" y="-280" />
              <mxPoint x="150" y="-465" />
            </Array>
          </mxGeometry>
        </mxCell>
        <mxCell id="eUXpXqpGrS1Ki1ExuDuf-23" style="edgeStyle=orthogonalEdgeStyle;rounded=0;orthogonalLoop=1;jettySize=auto;html=1;entryX=0;entryY=0.5;entryDx=0;entryDy=0;exitX=1;exitY=0.5;exitDx=0;exitDy=0;" parent="1" source="pBVoq0yZQ3j6YAWSU2nO-26" target="pBVoq0yZQ3j6YAWSU2nO-85" edge="1">
          <mxGeometry relative="1" as="geometry">
            <Array as="points">
              <mxPoint x="120" y="-307" />
              <mxPoint x="120" y="-774" />
            </Array>
          </mxGeometry>
        </mxCell>
        <mxCell id="io9W9nESMk3oc6VNc0aU-4" style="edgeStyle=orthogonalEdgeStyle;rounded=0;orthogonalLoop=1;jettySize=auto;html=1;entryX=0;entryY=0.5;entryDx=0;entryDy=0;" edge="1" parent="1" source="pBVoq0yZQ3j6YAWSU2nO-53" target="pBVoq0yZQ3j6YAWSU2nO-117">
          <mxGeometry relative="1" as="geometry" />
        </mxCell>
        <mxCell id="io9W9nESMk3oc6VNc0aU-5" value="trd0025_tb_dim_x_contr_type" style="shape=table;startSize=30;container=1;collapsible=1;childLayout=tableLayout;fixedRows=1;rowLines=0;fontStyle=1;align=center;resizeLast=1;strokeColor=#000000;rounded=0;" vertex="1" parent="1">
          <mxGeometry x="289" y="280" width="250" height="150.29411764705878" as="geometry">
            <mxRectangle x="360" width="100" height="30" as="alternateBounds" />
          </mxGeometry>
        </mxCell>
        <mxCell id="io9W9nESMk3oc6VNc0aU-6" value="" style="shape=partialRectangle;collapsible=0;dropTarget=0;pointerEvents=0;fillColor=none;points=[[0,0.5],[1,0.5]];portConstraint=eastwest;top=0;left=0;right=0;bottom=1;rounded=0;" vertex="1" parent="io9W9nESMk3oc6VNc0aU-5">
          <mxGeometry y="30" width="250" height="30" as="geometry" />
        </mxCell>
        <mxCell id="io9W9nESMk3oc6VNc0aU-7" value="PK" style="shape=partialRectangle;overflow=hidden;connectable=0;fillColor=none;top=0;left=0;bottom=0;right=0;fontStyle=1;rounded=0;" vertex="1" parent="io9W9nESMk3oc6VNc0aU-6">
          <mxGeometry width="30" height="30" as="geometry">
            <mxRectangle width="30" height="30" as="alternateBounds" />
          </mxGeometry>
        </mxCell>
        <mxCell id="io9W9nESMk3oc6VNc0aU-8" value="id_contract_type" style="shape=partialRectangle;overflow=hidden;connectable=0;fillColor=#ffe6cc;top=0;left=0;bottom=0;right=0;align=left;spacingLeft=6;fontStyle=0;strokeColor=#d79b00;rounded=0;" vertex="1" parent="io9W9nESMk3oc6VNc0aU-6">
          <mxGeometry x="30" width="220" height="30" as="geometry">
            <mxRectangle width="220" height="30" as="alternateBounds" />
          </mxGeometry>
        </mxCell>
        <mxCell id="io9W9nESMk3oc6VNc0aU-12" value="" style="shape=partialRectangle;collapsible=0;dropTarget=0;pointerEvents=0;fillColor=none;points=[[0,0.5],[1,0.5]];portConstraint=eastwest;top=0;left=0;right=0;bottom=0;rounded=0;" vertex="1" parent="io9W9nESMk3oc6VNc0aU-5">
          <mxGeometry y="60" width="250" height="30" as="geometry" />
        </mxCell>
        <mxCell id="io9W9nESMk3oc6VNc0aU-13" value="" style="shape=partialRectangle;overflow=hidden;connectable=0;fillColor=none;top=0;left=0;bottom=0;right=0;rounded=0;" vertex="1" parent="io9W9nESMk3oc6VNc0aU-12">
          <mxGeometry width="30" height="30" as="geometry">
            <mxRectangle width="30" height="30" as="alternateBounds" />
          </mxGeometry>
        </mxCell>
        <mxCell id="io9W9nESMk3oc6VNc0aU-14" value="val_contract_type" style="shape=partialRectangle;overflow=hidden;connectable=0;fillColor=#d5e8d4;top=0;left=0;bottom=0;right=0;align=left;spacingLeft=6;strokeColor=#82b366;perimeterSpacing=1;rounded=0;" vertex="1" parent="io9W9nESMk3oc6VNc0aU-12">
          <mxGeometry x="30" width="220" height="30" as="geometry">
            <mxRectangle width="220" height="30" as="alternateBounds" />
          </mxGeometry>
        </mxCell>
        <mxCell id="io9W9nESMk3oc6VNc0aU-15" value="" style="shape=partialRectangle;collapsible=0;dropTarget=0;pointerEvents=0;fillColor=none;points=[[0,0.5],[1,0.5]];portConstraint=eastwest;top=0;left=0;right=0;bottom=0;rounded=0;" vertex="1" parent="io9W9nESMk3oc6VNc0aU-5">
          <mxGeometry y="90" width="250" height="30" as="geometry" />
        </mxCell>
        <mxCell id="io9W9nESMk3oc6VNc0aU-16" value="" style="shape=partialRectangle;overflow=hidden;connectable=0;fillColor=none;top=0;left=0;bottom=0;right=0;rounded=0;" vertex="1" parent="io9W9nESMk3oc6VNc0aU-15">
          <mxGeometry width="30" height="30" as="geometry">
            <mxRectangle width="30" height="30" as="alternateBounds" />
          </mxGeometry>
        </mxCell>
        <mxCell id="io9W9nESMk3oc6VNc0aU-17" value="tst_load_date" style="shape=partialRectangle;overflow=hidden;connectable=0;fillColor=#cce5ff;top=0;left=0;bottom=0;right=0;align=left;spacingLeft=6;strokeColor=#36393d;perimeterSpacing=1;rounded=0;" vertex="1" parent="io9W9nESMk3oc6VNc0aU-15">
          <mxGeometry x="30" width="220" height="30" as="geometry">
            <mxRectangle width="220" height="30" as="alternateBounds" />
          </mxGeometry>
        </mxCell>
        <mxCell id="io9W9nESMk3oc6VNc0aU-18" value="" style="shape=partialRectangle;collapsible=0;dropTarget=0;pointerEvents=0;fillColor=none;points=[[0,0.5],[1,0.5]];portConstraint=eastwest;top=0;left=0;right=0;bottom=0;rounded=0;" vertex="1" parent="io9W9nESMk3oc6VNc0aU-5">
          <mxGeometry y="120" width="250" height="30" as="geometry" />
        </mxCell>
        <mxCell id="io9W9nESMk3oc6VNc0aU-19" value="" style="shape=partialRectangle;overflow=hidden;connectable=0;fillColor=none;top=0;left=0;bottom=0;right=0;rounded=0;" vertex="1" parent="io9W9nESMk3oc6VNc0aU-18">
          <mxGeometry width="30" height="30" as="geometry">
            <mxRectangle width="30" height="30" as="alternateBounds" />
          </mxGeometry>
        </mxCell>
        <mxCell id="io9W9nESMk3oc6VNc0aU-20" value="tst_update_load" style="shape=partialRectangle;overflow=hidden;connectable=0;fillColor=#b1ddf0;top=0;left=0;bottom=0;right=0;align=left;spacingLeft=6;strokeColor=#10739e;perimeterSpacing=1;rounded=0;" vertex="1" parent="io9W9nESMk3oc6VNc0aU-18">
          <mxGeometry x="30" width="220" height="30" as="geometry">
            <mxRectangle width="220" height="30" as="alternateBounds" />
          </mxGeometry>
        </mxCell>
        <mxCell id="io9W9nESMk3oc6VNc0aU-21" style="edgeStyle=orthogonalEdgeStyle;rounded=0;orthogonalLoop=1;jettySize=auto;html=1;entryX=0;entryY=0.5;entryDx=0;entryDy=0;" edge="1" parent="1" source="eUXpXqpGrS1Ki1ExuDuf-1" target="io9W9nESMk3oc6VNc0aU-6">
          <mxGeometry relative="1" as="geometry">
            <Array as="points">
              <mxPoint x="90" y="-187" />
              <mxPoint x="90" y="325" />
            </Array>
          </mxGeometry>
        </mxCell>
      </root>
    </mxGraphModel>
  </diagram>
</mxfile>
